<svg width="30" height="30" viewBox="0 0 30 30" fill="none" xmlns="http://www.w3.org/2000/svg">
<g clip-path="url(#clip0_128_502)">
<path d="M27.6152 0.685303H2.38778C1.06713 0.685303 0 1.75143 0 3.07007V26.9308C0 28.2454 1.06713 29.3146 2.38778 29.3146H27.6152C28.9299 29.3146 30 28.2464 30 26.9308V3.07007C29.999 1.75143 28.9289 0.685303 27.6152 0.685303ZM20.1653 9.1853C19.5451 8.82258 19.0531 8.536 18.4349 8.536C17.8297 8.536 17.3126 8.68731 17.0481 8.94181C16.7836 9.19432 16.6523 9.6833 16.6523 10.4057V11.4749H19.8878L19.1874 14.4488H16.6523V24.3306H12.5882V14.4488H10.6914V11.4749H12.5902V10.3396C12.5902 9.14422 12.7335 8.42879 13.016 7.83861C13.2976 7.25043 13.8437 6.59512 14.6032 6.22438C15.3617 5.85464 16.484 5.66827 17.6453 5.66827C18.8357 5.66827 19.7655 6.06506 20.9058 6.3847L20.1653 9.1853Z" fill="white"/>
</g>
<defs>
<clipPath id="clip0_128_502">
<rect width="30" height="30" fill="white"/>
</clipPath>
</defs>
</svg>
