<svg width="29" height="29" viewBox="0 0 29 29" fill="none" xmlns="http://www.w3.org/2000/svg">
<g clip-path="url(#clip0_128_505)">
<path d="M20.3607 0H8.63926C3.87555 0 0 3.87555 0 8.63926V20.3607C0 25.1244 3.87555 29 8.63926 29H20.3607C25.1244 29 29 25.1244 29 20.3607V8.63926C28.9999 3.87555 25.1244 0 20.3607 0ZM26.0826 20.3607C26.0826 23.5208 23.5208 26.0826 20.3607 26.0826H8.63926C5.47919 26.0826 2.9174 23.5208 2.9174 20.3607V8.63926C2.9174 5.47914 5.47919 2.9174 8.63926 2.9174H20.3607C23.5208 2.9174 26.0826 5.47914 26.0826 8.63926V20.3607Z" fill="white"/>
<path d="M14.5 6.99951C10.3643 6.99951 6.99957 10.3642 6.99957 14.4999C6.99957 18.6356 10.3643 22.0003 14.5 22.0003C18.6357 22.0003 22.0004 18.6356 22.0004 14.4999C22.0004 10.3641 18.6357 6.99951 14.5 6.99951ZM14.5 19.083C11.9688 19.083 9.91697 17.0311 9.91697 14.4999C9.91697 11.9688 11.9689 9.91691 14.5 9.91691C17.0312 9.91691 19.083 11.9688 19.083 14.4999C19.083 17.0311 17.0311 19.083 14.5 19.083Z" fill="white"/>
<path d="M22.0147 8.8532C23.0073 8.8532 23.8119 8.04856 23.8119 7.05599C23.8119 6.06343 23.0073 5.25879 22.0147 5.25879C21.0222 5.25879 20.2175 6.06343 20.2175 7.05599C20.2175 8.04856 21.0222 8.8532 22.0147 8.8532Z" fill="white"/>
</g>
<defs>
<clipPath id="clip0_128_505">
<rect width="29" height="29" fill="white"/>
</clipPath>
</defs>
</svg>
